Watch Dogs - Gameplay HD 

Youtube HD

MEDIAINFO:


General
Complete name                            : C:UsersKayDesktopDontWatch Dogs (PS4).mp4
Format                                   : MPEG-4
Format profile                           : Base Media / Version 2
Codec ID                                 : mp42
File size                                : 188 MiB
Duration                                 : 4mn 49s
Overall bit rate mode                    : Variable
Overall bit rate                         : 5 435 Kbps
Encoded date                             : UTC 2013-02-20 08:39:48
Tagged date                              : UTC 2013-02-20 08:39:48


Video
ID                                       : 1
Format                                   : AVC
Format/Info                              : Advanced Video Codec
Format profile                           : High@L4.0
Format settings, CABAC                   : Yes
Format settings, ReFrames                : 1 frame
Codec ID                                 : avc1
Codec ID/Info                            : Advanced Video Coding
Duration                                 : 4mn 49s
Bit rate                                 : 5 240 Kbps
Maximum bit rate                         : 14.8 Mbps
Width                                    : 1 920 pixels
Height                                   : 1 080 pixels
Display aspect ratio                     : 16:9
Frame rate mode                          : Constant
Frame rate                               : 29.970 fps
Color space                              : YUV
Chroma subsampling                       : 4:2:0
Bit depth                                : 8 bits
Scan type                                : Progressive
Bits/(Pixel*Frame)                       : 0.084
Stream size                              : 181 MiB (96%)
Tagged date                              : UTC 2013-02-20 08:40:02

Audio
ID                                       : 2
Format                                   : AAC
Format/Info                              : Advanced Audio Codec
Format profile                           : LC
Codec ID                                 : 40
Duration                                 : 4mn 49s
Bit rate mode                            : Variable
Bit rate                                 : 192 Kbps
Maximum bit rate                         : 201 Kbps
Channel(s)                               : 2 channels
Channel positions                        : Front: L R
Sampling rate                            : 44.1 KHz
Compression mode                         : Lossy
Stream size                              : 6.64 MiB (4%)
Title                                    : IsoMedia File Produced by Google, 5-11-2011
Encoded date                             : UTC 2013-02-20 08:39:59
Tagged date                              : UTC 2013-02-20 08:40:02